<svg width="54" height="58" viewBox="0 0 54 58" fill="none" xmlns="http://www.w3.org/2000/svg">
<g filter="url(#filter0_d_3_360)">
<path d="M26.69 6.68999C26.41 5.84999 26.18 5.61999 25.34 5.33999C26.18 5.05999 26.41 4.82999 26.69 3.98999C26.97 4.82999 27.2 5.05999 28.04 5.33999C27.2 5.61999 26.97 5.84999 26.69 6.68999Z" fill="black"/>
<path d="M27.75 5.34C27.09 5.56 26.91 5.74 26.69 6.4C26.47 5.74 26.29 5.56 25.63 5.34C26.29 5.12 26.47 4.94 26.69 4.28C26.91 4.94 27.09 5.12 27.75 5.34Z" fill="black"/>
<path d="M26.42 6.48998C26.23 5.91998 26.11 5.79998 25.54 5.60998L24.74 5.33998L25.55 5.06998C26.12 4.87998 26.24 4.75998 26.43 4.18998L26.7 3.38998L26.97 4.19998C27.16 4.76998 27.28 4.88998 27.85 5.07998L28.65 5.34998L27.84 5.61998C27.27 5.80998 27.15 5.92998 26.96 6.49998L26.69 7.29998L26.42 6.48998ZM26.33 5.33998C26.48 5.43998 26.6 5.54998 26.7 5.70998C26.8 5.55998 26.91 5.43998 27.07 5.33998C26.92 5.23998 26.8 5.12998 26.7 4.96998C26.6 5.11998 26.49 5.23998 26.33 5.33998Z" fill="black"/>
<path d="M26.69 6.66998L26.61 6.42998C26.4 5.79998 26.24 5.63998 25.6 5.41998L25.36 5.33998L25.6 5.25998C26.23 5.04998 26.39 4.88998 26.61 4.24998L26.69 4.00998L26.77 4.24998C26.98 4.87998 27.14 5.03998 27.78 5.25998L28.02 5.33998L27.78 5.41998C27.15 5.62998 26.99 5.78998 26.77 6.42998L26.69 6.66998ZM25.88 5.33998C26.32 5.51998 26.51 5.70998 26.69 6.14998C26.87 5.70998 27.06 5.51998 27.5 5.33998C27.06 5.15998 26.87 4.96998 26.69 4.52998C26.51 4.96998 26.32 5.15998 25.88 5.33998Z" fill="black"/>
<path d="M26.66 0C14.17 0 4 11.03 4 24.59C4 38.15 14.17 49.18 26.66 49.18C39.15 49.18 49.32 38.15 49.32 24.59C49.32 11.03 39.15 0 26.66 0ZM11.66 23.86C10.08 20.68 10.12 17.81 10.17 17C10.04 16.94 9.97 16.9 9.96 16.9L10.09 16.6C10.09 16.6 10.33 16.7 10.71 16.9C15.46 16.89 19.25 18.54 21.99 21.83C22.06 23.41 22.33 24.88 22.69 26.16C22.85 26.72 23.02 27.26 23.21 27.77C18.96 21.42 12.68 17.9 10.71 16.9C10.54 16.9 10.36 16.9 10.18 16.91C10.18 16.94 10.18 16.97 10.17 17C11.57 17.66 19.5 21.71 23.97 29.61C24.36 30.47 24.76 31.22 25.13 31.85C21.11 27.88 15.53 28 14.75 28.04C14.86 28.15 14.97 28.25 15.09 28.35C16.69 28.33 22.67 28.62 26.23 33.66C22.63 32.85 18.35 31.31 15.09 28.35C14.84 28.36 14.7 28.37 14.69 28.37L14.66 28.04H14.75C13.53 26.87 12.46 25.49 11.66 23.86ZM24.25 29.46C23.79 28.45 23.35 27.31 23 26.06C22.68 24.92 22.43 23.64 22.34 22.25C23.02 23.12 23.64 24.1 24.18 25.19C25.91 28.62 26.4 32.15 26.52 33.43C26.06 32.78 25.13 31.37 24.25 29.46ZM24.7 40.86C24.24 39.93 23.65 38.94 22.9 37.95C24.12 37.28 25.37 36.31 26.63 35.03C26.64 35.02 26.65 35.01 26.66 35C26.67 35 26.68 35.02 26.69 35.03C27.94 36.31 29.2 37.28 30.42 37.95C29.67 38.94 29.08 39.93 28.62 40.86C27.35 43.42 26.85 45.85 26.66 47.39C26.47 45.85 25.97 43.42 24.7 40.86ZM26.86 48.9C26.88 48.17 27.06 44.72 28.91 41.01C29.37 40.08 29.96 39.09 30.71 38.11C32.43 38.97 34.1 39.24 35.72 38.92C38.5 38.36 40.59 36.1 41.85 34.31C43.22 32.38 43.94 30.56 43.95 30.54L44.06 30.27L43.77 30.32C37.1 31.53 33.06 34.59 30.62 37.69C29.44 37.06 28.25 36.13 27.03 34.92C27.21 34.82 27.32 34.62 27.32 34.4C27.32 34.24 27.26 34.1 27.17 33.99C32.37 32.85 39.01 30.18 42.06 23.99C43.95 20.17 43.56 16.77 43.56 16.73L43.54 16.59H43.4C37.77 16.39 34.04 18.51 31.6 21.16C31.61 21.32 31.6 21.48 31.59 21.64C34.31 18.49 38.01 16.9 42.64 16.9H42.71C40.74 17.9 34.5 21.4 30.25 27.72C30.99 25.82 31.5 23.77 31.59 21.64C31.46 21.78 31.33 21.93 31.23 22.08C30.92 26.37 28.94 30.34 26.9 33.35C27.04 32 27.55 28.55 29.24 25.19C29.82 24.03 30.48 23 31.23 22.08C31.25 21.91 31.26 21.73 31.26 21.55C30.28 22.69 29.52 23.9 28.94 25.06C27.56 27.81 26.96 30.61 26.71 32.3C26.46 30.61 25.86 27.81 24.48 25.06C23.93 23.96 23.22 22.81 22.31 21.72C22.19 18.19 23.14 14.09 26.64 10.2C27.17 10.67 29.37 12.76 30.54 16.27C31.13 18.05 31.34 19.83 31.26 21.55C31.37 21.42 31.48 21.29 31.6 21.16C31.63 19.52 31.4 17.84 30.84 16.15C29.48 12.08 26.75 9.87 26.73 9.85L26.61 9.75L26.5 9.86C22.97 13.72 21.93 17.8 21.98 21.34C19.55 18.61 15.78 16.38 10.02 16.59H9.88L9.86 16.73C9.86 16.73 9.47 20.17 11.36 23.99C14.41 30.17 21.03 32.84 26.22 33.98C26.12 34.09 26.06 34.24 26.06 34.4C26.06 34.6 26.16 34.78 26.31 34.9C25.09 36.12 23.87 37.05 22.69 37.69C20.26 34.59 16.22 31.53 9.55 30.32L9.26 30.27L9.37 30.54C9.37 30.54 10.1 32.38 11.46 34.31C12.73 36.1 14.82 38.36 17.6 38.92C19.22 39.25 20.89 38.97 22.6 38.11C23.35 39.09 23.94 40.07 24.4 41C26.26 44.71 26.44 48.18 26.46 48.9C14.2 48.79 4.27 37.93 4.27 24.59C4.27 11.25 14.31 0.26 26.66 0.26C39.01 0.26 49.05 11.17 49.05 24.59C49.05 38.01 39.12 48.79 26.86 48.9ZM30.92 37.84C33.28 34.86 37.17 31.92 43.53 30.7C42.95 32.02 40.2 37.68 35.66 38.6C34.13 38.91 32.54 38.65 30.92 37.84ZM38.34 28.35C35.08 31.31 30.8 32.85 27.19 33.66C30.76 28.61 36.76 28.33 38.34 28.35ZM28.21 31.94C28.6 31.18 29.04 30.45 29.44 29.61H29.45C33.92 21.71 41.85 17.67 43.25 17C43.3 17.81 43.34 20.68 41.76 23.86C40.96 25.49 39.89 26.87 38.67 28.04C37.88 28 32.23 27.88 28.21 31.94ZM22.4 37.84C20.77 38.65 19.19 38.91 17.66 38.6C13.12 37.68 10.37 32.02 9.79 30.7C16.15 31.92 20.04 34.86 22.4 37.84Z" fill="black"/>
</g>
<defs>
<filter id="filter0_d_3_360" x="0" y="0" width="53.32" height="57.18" filterUnits="userSpaceOnUse" color-interpolation-filters="sRGB">
<feFlood flood-opacity="0" result="BackgroundImageFix"/>
<feColorMatrix in="SourceAlpha" type="matrix" values="0 0 0 0 0 0 0 0 0 0 0 0 0 0 0 0 0 0 127 0" result="hardAlpha"/>
<feOffset dy="4"/>
<feGaussianBlur stdDeviation="2"/>
<feComposite in2="hardAlpha" operator="out"/>
<feColorMatrix type="matrix" values="0 0 0 0 0 0 0 0 0 0 0 0 0 0 0 0 0 0 0.25 0"/>
<feBlend mode="normal" in2="BackgroundImageFix" result="effect1_dropShadow_3_360"/>
<feBlend mode="normal" in="SourceGraphic" in2="effect1_dropShadow_3_360" result="shape"/>
</filter>
</defs>
</svg>
