<svg width="165" height="22" viewBox="0 0 165 22" fill="none" xmlns="http://www.w3.org/2000/svg">
<path d="M145.82 16.7704C145.82 21.0704 138.64 22.5404 134.2 20.3204C134.14 20.3004 134.09 20.2704 134.05 20.2504C133.82 20.1604 133.61 20.0404 133.41 19.9104C132.91 19.5904 132.58 19.1904 132.43 18.6704C132.3 18.2504 132.3 17.8804 132.42 17.5704C132.54 17.2504 132.74 16.9904 133 16.7704C133.26 16.5604 133.57 16.4104 133.94 16.3104C134.3 16.2104 134.67 16.1704 135.01 16.1904C135.36 16.2104 135.66 16.3104 135.93 16.4904C136.19 16.6704 136.37 16.8804 136.47 17.1304C136.56 17.3704 136.56 17.6304 136.46 17.9104C136.35 18.1904 136.1 18.4304 135.7 18.6504C135.28 18.8804 135.07 19.1304 135.08 19.4004C135.09 19.6004 135.19 19.7804 135.39 19.9404C139.13 22.1304 144.12 21.3004 144.12 17.9404C144.12 13.2104 133.22 9.51043 133.22 5.00043C133.22 1.14043 140.02 -1.46957 144.34 0.910433V2.96043C140.79 -0.869567 134.93 0.0804327 134.93 3.94043C134.93 8.32043 145.83 12.2104 145.83 16.7704H145.82Z" fill="#1F1F1F"/>
<path d="M13.15 18.8304V12.7204C13.15 6.45042 12.02 2.04042 10.94 0.240417H13.46V21.1504H12.06L0.32 2.07042V8.66042C0.32 14.9304 1.4 19.3404 2.48 21.1404H0V0.240417H1.67L13.16 18.8304H13.15Z" fill="#1F1F1F"/>
<path d="M85.79 0.240417H84.04L79.75 13.3504C78.33 15.1304 78.03 17.2304 77.41 19.1904C77.2 19.7404 76.87 20.2604 76.35 20.6604C74.72 22.0804 71.61 21.3104 71.07 19.6204C70.6 18.5704 71.79 17.5804 71.95 16.3604C72.37 12.1204 68.91 10.7504 64.18 10.3004L65.05 9.90042C65.22 9.79042 65.41 9.70042 65.62 9.65042C65.65 9.63042 65.68 9.63042 65.71 9.62042C65.78 9.58042 65.84 9.54042 65.91 9.50042C66.01 9.45042 66.1 9.41042 66.2 9.38042C66.24 9.36042 66.28 9.36042 66.32 9.34042C75.86 4.93042 74.69 0.240417 66.7 0.240417H60.8V21.1504H63.05V11.6304C67.64 11.4304 71.37 12.2804 71.25 16.3004C71.19 17.4304 70.03 18.5404 70.59 19.7204C71.98 22.6404 76.84 22.1104 77.68 19.2304C78.26 17.2804 78.55 15.2104 79.99 13.4904C80.18 13.2404 80.4 13.0104 80.63 12.8104C82.2 11.3904 84.6 10.7604 86.88 10.5304L90.35 21.1504H92.69L85.79 0.240417ZM63.66 10.2604L63.04 10.5404V0.470417H65.79C71.15 0.470417 73.68 5.77042 65.79 9.31042L63.66 10.2504V10.2604ZM80.37 12.6904C80.31 12.7404 80.26 12.7904 80.2 12.8404V12.7904L83.9 1.61042L86.78 10.3104C84.46 10.5504 81.99 11.2004 80.37 12.6904Z" fill="#1F1F1F"/>
<path d="M100.78 0.240417V20.9204C104.74 20.9204 109.61 19.9904 110.6 19.2204V21.1504H98.53V0.240417H100.78Z" fill="#1F1F1F"/>
<path d="M119.2 10.8504L111.64 0.240417H114.16L121.28 10.3404L122.68 8.28042C124.89 5.03042 126.06 2.75042 125.97 0.240417H128.72L121.47 10.5704V21.1504H119.22V10.8604L119.2 10.8504Z" fill="#1F1F1F"/>
<path d="M158.38 21.1504H156.13V0.500417C153.97 0.660417 151.09 1.34042 150.23 2.01042V0.240417H164.28V0.470417H158.38V21.1504Z" fill="#1F1F1F"/>
<path d="M20.97 16.7304V0.0904236H23.22V17.1704C23.22 22.2804 33.65 21.8904 33.65 17.1704V11.2604C33.65 5.00042 32.57 1.88042 31.49 0.0904236H33.96V17.1704C33.96 22.7604 20.97 22.3104 20.97 16.7204V16.7304Z" fill="#1F1F1F"/>
<path d="M46.16 0.320424H40.27V0.0904236H54.3V1.86042C53.45 1.19042 50.57 0.510424 48.41 0.350424V20.9704H46.16V0.320424Z" fill="#1F1F1F"/>
</svg>
