<svg width="168" height="21" viewBox="0 0 168 21" fill="none" xmlns="http://www.w3.org/2000/svg">
<path d="M6.59839 6.3V4.62287C6.59839 3.8058 7.15435 3.61229 7.54206 3.61229H9.94879V0.0143348L6.63497 0C2.96269 0 2.12143 2.68055 2.12143 4.40068V6.3H0V10.5H2.14338V21H6.43014V10.5H9.61229L10 6.3H6.59107H6.59839Z" fill="#1F1F1F"/>
<path d="M113.909 4.10411C113.226 4.39276 112.5 4.59786 111.738 4.68901C112.543 4.18767 113.169 3.41287 113.499 2.48615C113.521 2.42538 113.456 2.37221 113.406 2.40259C112.644 2.85076 111.817 3.17739 110.933 3.3597C110.179 2.52413 109.108 2 107.922 2C105.644 2 103.796 3.92181 103.796 6.29178C103.796 6.62601 103.832 6.95264 103.904 7.27167C100.483 7.08937 97.4499 5.39544 95.4159 2.81278C95.4087 2.79759 95.3872 2.80518 95.38 2.81278C95.035 3.44325 94.8409 4.16488 94.8409 4.93968C94.8409 6.39812 95.5381 7.68186 96.609 8.46425C96.6306 8.47945 96.6162 8.51743 96.5946 8.50983C95.9621 8.47185 95.3728 8.28955 94.8481 7.9933C94.8337 7.9857 94.8122 7.9933 94.8194 8.01609C94.8265 8.20599 94.8912 9.04915 95.0997 9.58847C95.6172 10.9254 96.7384 11.9509 98.1327 12.2471C97.7877 12.3458 97.4212 12.399 97.0402 12.399C96.7887 12.399 96.5443 12.3762 96.2999 12.3231C96.2856 12.3231 96.2712 12.3382 96.2712 12.3534C96.8031 14.017 98.2836 15.2324 100.045 15.2931C100.066 15.2931 100.081 15.3235 100.059 15.3387C98.6574 16.4629 96.8965 17.1314 94.9847 17.1314C94.654 17.1314 94.3234 17.1086 94 17.0706C95.8256 18.286 97.9962 19 100.325 19C103.538 19 106.132 17.8302 108.058 16.0527C109.999 14.2601 111.264 11.8369 111.789 9.37578C111.976 8.50983 112.069 7.63628 112.069 6.78552C112.069 6.60322 112.069 6.41332 112.055 6.23101C112.802 5.6689 113.456 4.97766 113.988 4.19526C114.024 4.14209 113.974 4.06613 113.909 4.09651V4.10411Z" fill="#1F1F1F"/>
<path d="M51.6831 16.2258C54.8384 16.2258 57.4089 13.6553 57.4089 10.5C57.4089 7.34468 54.8384 4.7742 51.6831 4.7742C48.5278 4.7742 45.9573 7.34468 45.9573 10.5C45.9573 13.6553 48.5278 16.2258 51.6831 16.2258ZM47.3436 10.5C47.3436 8.10282 49.2931 6.16052 51.6831 6.16052C54.0731 6.16052 56.0226 8.11004 56.0226 10.5C56.0226 12.89 54.0731 14.8395 51.6831 14.8395C49.2931 14.8395 47.3436 12.89 47.3436 10.5Z" fill="#1F1F1F"/>
<path d="M57.3944 20.0165H45.9717C43.8272 20.0165 42.0798 18.2692 42.0798 16.1247V4.87528C42.0798 2.73081 43.8272 0.983459 45.9717 0.983459H57.3944C59.5389 0.983459 61.2862 2.73081 61.2862 4.87528V16.1247C61.2862 18.2692 59.5389 20.0165 57.3944 20.0165ZM45.9717 2.40589C44.607 2.40589 43.5023 3.51061 43.5023 4.87528V16.1247C43.5023 17.4894 44.607 18.5941 45.9717 18.5941H57.3944C58.7591 18.5941 59.8638 17.4894 59.8638 16.1247V4.87528C59.8638 3.51061 58.7591 2.40589 57.3944 2.40589H45.9717Z" fill="#1F1F1F"/>
<path d="M166.384 3H147.616C146.725 3 146 3.75298 146 4.67744V16.3226C146 17.247 146.725 18 147.616 18H166.384C167.275 18 168 17.247 168 16.3226V4.67744C168 3.75298 167.275 3 166.384 3ZM166.7 4.93837L157.205 10.4105C157.147 10.4404 157.09 10.4627 157.025 10.4627H156.975C156.91 10.4627 156.846 10.4478 156.795 10.4105L147.3 4.93837C147.12 4.834 147.056 4.59543 147.156 4.40905C147.257 4.22266 147.487 4.15557 147.666 4.25994L157.004 9.64265L166.341 4.25994C166.52 4.15557 166.75 4.22266 166.851 4.40905C166.951 4.59543 166.887 4.834 166.707 4.93837H166.7Z" fill="#1F1F1F"/>
</svg>
