<svg width="34" height="21" viewBox="0 0 34 21" fill="none" xmlns="http://www.w3.org/2000/svg">
<path d="M31.5024 0H2.49755C1.12112 0 0 1.05418 0 2.34841V18.6516C0 19.9458 1.12112 21 2.49755 21H31.5024C32.8789 21 34 19.9458 34 18.6516V2.34841C34 1.05418 32.8789 0 31.5024 0ZM31.9909 2.71372L17.3164 10.3748C17.2276 10.4165 17.1387 10.4478 17.0388 10.4478H16.9612C16.8613 10.4478 16.7614 10.4269 16.6837 10.3748L2.00914 2.71372C1.73163 2.5676 1.63173 2.2336 1.78714 1.97266C1.94254 1.71173 2.29776 1.6178 2.57526 1.76392L17.0055 9.29971L31.4359 1.76392C31.7134 1.6178 32.0686 1.71173 32.224 1.97266C32.3794 2.2336 32.2795 2.5676 32.002 2.71372H31.9909Z" fill="#1F1F1F"/>
</svg>
